# AST/ASF file generated using VICON BodyLanguage
# -----------------------------------------------
:version 1.10
:name VICON
:units
  mass 1.0
  length 0.45
  angle deg
:documentation
   .ast/.asf automatically generated from VICON data using
   VICON BodyBuilder and BodyLanguage model FoxedUp or BRILLIANT.MOD
:root
   order TX TY TZ RX RY RZ
   axis XYZ
   position 0 0 0  
   orientation 0 -0 0 
:bonedata
  begin
     id 1 
     name lhipjoint
     direction 0.500677 -0.737119 0.453848 
     length 2.34727 
     axis 0 -0 0  XYZ
  end
  begin
     id 2 
     name lfemur
     direction 0.34202 -0.939693 0  
     length 7.53653  
     axis 0 -0 20  XYZ
    dof rx ry rz
    limits (-160.0 20.0)
           (-70.0 70.0)
           (-60.0 70.0)
  end
  begin
     id 3 
     name ltibia
     direction 0.34202 -0.939693 0   
     length 6.85572   
     axis 0 -0 20   XYZ
    dof rx
    limits (-10.0 170.0)
  end
  begin
     id 4 
     name lfoot
     direction 0.155313 -0.426718 0.890949   
     length 2.18324   
     axis -90 -1.13533e-015 20   XYZ
    dof rx rz
    limits (-45.0 90.0)
           (-70.0 20.0)
  end
  begin
     id 5 
     name ltoes
     direction 1.53474e-011 -4.21647e-011 1   
     length 1.06748   
     axis -90 -1.13533e-015 20   XYZ
    dof rx
    limits (-90.0 20.0)
  end
  begin
     id 6 
     name rhipjoint
     direction -0.632471 -0.659587 0.406111   
     length 2.62319  
     axis 0 -0 0  XYZ 
  end
  begin
     id 7 
     name rfemur
     direction -0.34202 -0.939693 0   
     length 7.21735   
     axis 0 -0 -20   XYZ
    dof rx ry rz
    limits (-160.0 20.0)
           (-70.0 70.0)
           (-70.0 60.0)
  end
  begin
     id 8 
     name rtibia
     direction -0.34202 -0.939693 0   
     length 7.02558   
     axis 0 -0 -20   XYZ
    dof rx
    limits (-10.0 170.0)
 end
 begin
     id 9 
     name rfoot
     direction -0.16057 -0.441164 0.882945   
     length 2.10014  
     axis -90 1.13533e-015 -20   XYZ
    dof rx rz
    limits (-45.0 90.0)
           (-20.0 70.0)
  end
  begin
     id 10 
     name rtoes
     direction -1.53553e-011 -4.2192e-011 1   
     length 1.02554   
     axis -90 1.13533e-015 -20   XYZ
    dof rx
    limits (-90.0 20.0)
  end
  begin
     id 11 
     name lowerback
     direction 0.0401429 0.998861 -0.0258085   
     length 1.80848   
     axis 0 -0 0   XYZ
    dof rx ry rz
    limits (-20.0 45.0)
           (-30.0 30.0)
           (-30.0 30.0)
  end
  begin
     id 12 
     name upperback
     direction -0.0130978 0.999914 -0.000352645   
     length 1.8116   
     axis 0 -0 0   XYZ
    dof rx ry rz
    limits (-20.0 45.0)
           (-30.0 30.0)
           (-30.0 30.0)
  end
  begin
     id 13 
     name thorax
     direction -0.0300198 0.999453 0.0138573   
     length 1.81778   
     axis 0 -0 0   XYZ
    dof rx ry rz
    limits (-20.0 45.0)
           (-30.0 30.0)
           (-30.0 30.0)
  end
  begin
     id 14 
     name lowerneck
     direction -0.0401726 0.999191 -0.00173647   
     length 2.10594   
     axis 0 -0 0   XYZ
    dof rx ry rz
    limits (-20.0 45.0)
           (-30.0 30.0)
           (-30.0 30.0)
  end
  begin
     id 15 
     name upperneck
     direction 0.0119835 0.998501 0.0534085   
     length 2.07325   
     axis 0 -0 0   XYZ
    dof rx ry rz
    limits (-20.0 45.0)
           (-30.0 30.0)
           (-30.0 30.0)
  end
  begin
     id 16
     name head
     direction 0.00628309 0.999826 0.0175921  
     length 2.15096  
     axis 0 -0 0   XYZ
    dof rx ry rz
    limits (-20.0 45.0)
           (-30.0 30.0)
           (-30.0 30.0)
  end
  begin
     id 17 
     name lclavicle
     direction 0.895501 0.429681 -0.115981  
     length 4.18092  
     axis 0 -0 0   XYZ
    dof ry rz
    limits (-20.0 10.0)
           (0.0 20.0)
  end
  begin
     id 18 
     name lhumerus
     direction 1 -4.48961e-011 -3.38433e-028   
     length 5.77237   
     axis 180 -30 -90   XYZ
    dof rx ry rz
    limits (-60.0 90.0)
           (-90.0 90.0)
           (-90.0 90.0)
  end
  begin
     id 19
     name lradius
     direction 1 -4.4901e-011 1.11983e-026   
     length 2.91878   
     axis 180 -30 -90   XYZ
    dof rx
    limits (-10.0 170.0)
  end
  begin
     id 20
     name lwrist
     direction 1 -4.48934e-011 1.88176e-026   
     length 1.45939   
     axis -1.23311e-014 90 90   XYZ
    dof ry
    limits (-180.0 0.0)
 end
  begin
     id 21 
     name lhand
     direction 1 -4.4895e-011 3.76352e-026   
     length 1.06566   
     axis -2.40147e-014 90 90   XYZ
    dof rx rz
    limits (-90.0 90.0)
           (-45.0 45.0)
  end
  begin
     id 22 
     name lfingers
     direction 1 -4.49005e-011 7.52705e-026   
     length 0.859162   
     axis -4.80295e-014 90 90   XYZ
    dof rx
    limits (0.0 90.0)
  end
  begin
     id 23
     name lthumb
     direction 0.707107 -6.34885e-011 0.707107   
     length 1.23359   
     axis -90 45 -9.86935e-015   XYZ
    dof rx rz
    limits (-45.0 45.0)
           (-45.0 45.0)
  end
  begin
     id 24 
     name rclavicle
     direction -0.91006 0.40451 -0.0903492   
     length 4.23293  
     axis 0 -0 0   XYZ 
    dof ry rz
    limits (-10.0 20.0)
           (-20.0 0.0)
  end
  begin
     id 25 
     name rhumerus
     direction -1 -4.4897e-011 1.7415e-027  
     length 5.49854   
     axis 180 30 90   XYZ
    dof rx ry rz
    limits (-90.0 60.0)
           (-90.0 90.0)
           (-90.0 90.0)
  end
  begin
     id 26 
     name rradius
     direction -1 -4.48963e-011 1.21259e-026   
     length 3.1186   
     axis 180 30 90   XYZ
    dof rx
    limits (-10.0 170.0)
  end
  begin
     id 27 
     name rwrist
     direction -1 -4.48967e-011 1.88176e-026   
     length 1.5593   
     axis -1.23311e-014 -90 -90   XYZ
    dof ry
    limits (-180.0 0.0)
  end
  begin
     id 28
     name rhand
     direction -1 -4.4895e-011 3.76352e-026   
     length 0.71207   
     axis -2.40147e-014 -90 -90   XYZ
    dof rx rz
    limits (-90.0 90.0)
           (-45.0 45.0)
  end
  begin
     id 29
     name rfingers
     direction -1 -4.49005e-011 7.52705e-026   
     length 0.574089   
     axis -4.80295e-014 -90 -90   XYZ
    dof rx
    limits (0.0 90.0)
  end
  begin
     id 30
     name rthumb
     direction -0.707107 -6.34982e-011 0.707107   
     length 0.824281   
     axis -90 -45 9.86935e-015   XYZ
    dof rx rz
    limits (-45.0 45.0)
           (-45.0 45.0)
  end
:hierarchy
  begin
    root lhipjoint rhipjoint lowerback
    lhipjoint lfemur
    lfemur ltibia
    ltibia lfoot
    lfoot ltoes
    rhipjoint rfemur
    rfemur rtibia
    rtibia rfoot
    rfoot rtoes
    lowerback upperback
    upperback thorax
    thorax lowerneck lclavicle rclavicle
    lowerneck upperneck
    upperneck head
    lclavicle lhumerus
    lhumerus lradius
    lradius lwrist
    lwrist lhand lthumb
    lhand lfingers
    rclavicle rhumerus
    rhumerus rradius
    rradius rwrist
    rwrist rhand rthumb
    rhand rfingers
  end

#!OML:ASF C:\ViconDB\ViconDB\414\Spring2016\042216\male.ASF
:FULLY-SPECIFIED
:DEGREES
542
root 30.0345 17.1184 -1.34658 -536.685 32.1437 -178.759
lowerback 9.66363 -2.54869 8.42454
upperback 1.6456 -2.34483 0.666519
thorax -4.01609 -1.20823 -3.73078
lowerneck 1.17668 1.72154 -7.00014
upperneck -9.89211 2.84048 6.3462
head -3.31336 1.518 2.974
rclavicle 5.76476e-015 -1.59028e-014
rhumerus -17.3878 -10.0368 -60.9795
rradius 59.4296
rwrist 9.88508
rhand 1.39479 -30.1036
rfingers 7.12502
rthumb 26.9256 -58.2055
lclavicle 5.76476e-015 -1.59028e-014
lhumerus -16.9456 20.4943 38.4989
lradius 97.3255
lwrist 22.7272
lhand -27.6687 11.4248
lfingers 7.12502
lthumb -1.06595 41.4019
rfemur -15.658 12.2453 20.0683
rtibia 33.5728
rfoot -18.5939 -2.63906
rtoes -18.1217
lfemur -57.0237 17.3324 -14.3767
ltibia 126.887
lfoot -20.6897 5.86184
ltoes -10.7335
543
root 30.0856 17.0756 -1.25556 -537.593 31.1417 -179.962
lowerback 10.9845 -2.68072 7.14153
upperback 1.54561 -2.55474 0.349113
thorax -4.84191 -1.32618 -3.26883
lowerneck 1.22279 1.57562 -7.12409
upperneck -10.5679 2.7144 6.52201
head -3.51754 1.46844 3.05341
rclavicle 2.41523e-014 -1.07344e-014
rhumerus -18.0789 -9.89225 -63.1429
rradius 57.1811
rwrist 10.1583
rhand 2.47279 -29.1698
rfingers 7.12502
rthumb 27.9567 -57.1083
lclavicle 2.41523e-014 -1.07344e-014
lhumerus -17.0487 20.1277 39.558
lradius 95.9977
lwrist 24.0149
lhand -28.142 11.4153
lfingers 7.12502
lthumb -1.52302 41.3896
rfemur -16.2765 12.478 19.3614
rtibia 35.4021
rfoot -19.4608 -3.95354
rtoes -18.0351
lfemur -57.4062 14.3743 -16.1718
ltibia 123.616
lfoot -20.3992 6.08374
ltoes -10.5742
544
root 30.1448 17.0402 -1.17078 -538.019 30.1188 -180.464
lowerback 11.9016 -2.7016 6.49586
upperback 1.49375 -2.58733 0.242133
thorax -5.38664 -1.34491 -2.98173
lowerneck 1.29969 1.35717 -7.36877
upperneck -11.148 2.45822 6.56145
head -3.68932 1.36188 3.11653
rclavicle 1.80894e-014 -2.78299e-015
rhumerus -19.021 -9.90981 -64.7289
rradius 55.5117
rwrist 10.942
rhand 2.93988 -28.6752
rfingers 7.12502
rthumb 28.4031 -56.5401
lclavicle 1.80894e-014 -2.78299e-015
lhumerus -16.9219 19.3749 40.8362
lradius 94.6275
lwrist 24.9169
lhand -29.8379 11.369
lfingers 7.12502
lthumb -3.16091 41.3253
rfemur -16.6323 13.1685 19.3288
rtibia 36.534
rfoot -19.9483 -5.77887
rtoes -17.9357
lfemur -57.718 12.3194 -16.9813
ltibia 120.275
lfoot -20.4694 5.91074
ltoes -9.88778
545
root 30.2128 17.0254 -1.11098 -537.877 29.0473 -180.334
lowerback 12.1432 -2.70548 6.48276
upperback 1.52114 -2.56797 0.266732
thorax -5.4885 -1.33373 -2.94444
lowerneck 1.10466 1.09795 -7.53692
upperneck -11.5416 2.14485 6.45047
head -3.75339 1.23585 3.12459
rclavicle -2.66371e-014 9.93923e-015
rhumerus -19.975 -10.1037 -66.0322
rradius 54.3968
rwrist 11.7618
rhand 2.61397 -28.5931
rfingers 7.12502
rthumb 28.0916 -56.5094
lclavicle -2.66371e-014 9.93923e-015
lhumerus -16.3834 18.9083 42.0113
lradius 93.0653
lwrist 25.3663
lhand -31.3003 11.4015
lfingers 7.12502
lthumb -4.57314 41.3321
rfemur -16.8095 13.8297 19.8254
rtibia 37.0092
rfoot -20.2136 -7.50034
rtoes -17.8619
lfemur -57.9768 10.6194 -17.0726
ltibia 116.969
lfoot -21.0373 5.68566
ltoes -10.8514
546
root 30.2846 17.033 -1.08274 -537.702 27.8498 -180.347
lowerback 11.8337 -2.6832 6.57624
upperback 1.55259 -2.55712 0.203432
thorax -5.28903 -1.326 -3.07672
lowerneck 0.914435 0.855763 -7.5724
upperneck -11.709 1.82831 6.23092
head -3.74853 1.10214 3.07601
rclavicle -1.2921e-014 1.03368e-014
rhumerus -21.2034 -10.3172 -66.993
rradius 53.7864
rwrist 12.8839
rhand 2.05112 -28.5155
rfingers 7.12502
rthumb 27.5535 -56.5189
lclavicle -1.2921e-014 1.03368e-014
lhumerus -15.7081 18.4924 43.117
lradius 91.4901
lwrist 25.5363
lhand -32.2958 11.4306
lfingers 7.12502
lthumb -5.53431 41.3383
rfemur -16.6846 14.0427 20.1255
rtibia 36.9348
rfoot -20.3528 -8.84757
rtoes -17.6426
lfemur -57.8458 8.86779 -17.3069
ltibia 113.737
lfoot -22.1101 5.68395
ltoes -13.2626
547
root 30.3569 17.0544 -1.07293 -537.638 26.5905 -180.354
lowerback 11.4142 -2.69759 6.67578
upperback 1.60619 -2.60048 0.186566
thorax -5.00891 -1.34105 -3.15836
lowerneck 0.728371 0.659112 -7.60712
upperneck -11.6571 1.53266 5.83331
head -3.68064 0.978979 2.97005
rclavicle -4.11484e-014 -3.73715e-014
rhumerus -22.3689 -10.6952 -67.6158
rradius 53.4293
rwrist 13.7001
rhand 1.68978 -28.2476
rfingers 7.12502
rthumb 27.2079 -56.3056
lclavicle -4.11484e-014 -3.73715e-014
lhumerus -15.3516 18.4363 44.1042
lradius 90.0574
lwrist 25.0813
lhand -32.5748 11.311
lfingers 7.12502
lthumb -5.80366 41.2115
rfemur -16.1218 14.0527 20.4392
rtibia 36.3634
rfoot -20.3036 -9.99467
rtoes -17.4918
lfemur -57.2253 7.26005 -17.5082
ltibia 110.674
lfoot -23.0148 6.04285
ltoes -13.5696
548
root 30.421 17.1001 -1.08219 -537.734 25.329 -180.532
lowerback 10.9242 -2.72361 6.66824
upperback 1.65928 -2.67881 0.185362
thorax -4.68852 -1.37041 -3.16081
lowerneck 0.610442 0.516202 -7.75825
upperneck -11.508 1.28547 5.38667
head -3.60037 0.880805 2.86546
rclavicle -4.1546e-014 1.63003e-014
rhumerus -23.5574 -10.7983 -67.845
rradius 53.5078
rwrist 13.8228
rhand 1.56153 -28.0191
rfingers 7.12502
rthumb 27.0852 -56.0963
lclavicle -4.1546e-014 1.63003e-014
lhumerus -15.1823 18.4307 45.015
lradius 88.7945
lwrist 25.1277
lhand -32.8174 10.9594
lfingers 7.12502
lthumb -6.03796 40.8533
rfemur -15.2062 13.6899 20.54
rtibia 35.3475
rfoot -20.0628 -10.7484
rtoes -17.2983
lfemur -56.3563 5.72196 -17.8168
ltibia 107.858
lfoot -23.7121 6.42344
ltoes -13.5609
549
root 30.4784 17.1529 -1.09326 -537.573 24.2031 -180.358
lowerback 10.497 -2.82527 6.85169
upperback 1.58458 -2.82192 0.314871
thorax -4.54724 -1.44271 -3.11878
lowerneck 0.495225 0.467868 -7.81094
upperneck -10.8878 1.11043 4.60363
head -3.75954 0.836604 2.90698
rclavicle -3.17062e-014 1.59028e-015
rhumerus -24.5053 -10.6507 -67.955
rradius 53.6387
rwrist 13.5762
rhand 1.51798 -27.8733
rfingers 7.12502
rthumb 27.0435 -55.9569
lclavicle -3.17062e-014 1.59028e-015
lhumerus -15.5917 18.6999 45.5539
lradius 87.8631
lwrist 24.9847
lhand -32.892 10.8885
lfingers 7.12502
lthumb -6.10991 40.7804
rfemur -14.2451 13.3397 20.9326
rtibia 33.8582
rfoot -19.4841 -11.3019
rtoes -17.0663
lfemur -55.559 4.72075 -17.8011
ltibia 105.411
lfoot -23.9512 7.22023
ltoes -13.8303
550
root 30.5399 17.2127 -1.10268 -537.276 23.1564 -179.761
lowerback 10.2258 -2.9911 7.28865
upperback 1.40723 -2.99893 0.55466
thorax -4.61197 -1.54232 -3.08997
lowerneck 0.52531 0.514523 -7.88345
upperneck -10.543 1.09575 4.12535
head -3.63647 0.8351 2.74926
rclavicle -4.13472e-014 1.59028e-014
rhumerus -25.4105 -10.423 -67.9424
rradius 53.9381
rwrist 12.8501
rhand 1.71243 -27.6757
rfingers 7.12502
rthumb 27.2295 -55.7303
lclavicle -4.13472e-014 1.59028e-014
lhumerus -16.4263 19.1005 45.7314
lradius 87.184
lwrist 24.8076
lhand -32.6409 11.1933
lfingers 7.12502
lthumb -5.86749 41.092
rfemur -13.0857 13.0396 21.7859
rtibia 31.9551
rfoot -18.4633 -11.8094
rtoes -17.595
lfemur -54.6427 4.21371 -17.3894
ltibia 103.155
lfoot -23.7899 8.82339
ltoes -13.935
